<svg width="140" height="140" viewBox="0 0 140 140" fill="none" xmlns="http://www.w3.org/2000/svg">
<path d="M139.996 104.817V125.893C140.004 127.849 139.602 129.786 138.817 131.578C138.031 133.371 136.879 134.98 135.435 136.303C133.99 137.626 132.285 138.633 130.428 139.259C128.571 139.886 126.603 140.119 124.65 139.943C102.99 137.594 82.183 130.207 63.9023 118.376C46.8945 107.589 32.4748 93.1984 21.6674 76.2243C9.77102 57.8969 2.36769 37.0306 0.0571348 15.3156C-0.11877 13.3729 0.112568 11.415 0.736417 9.56639C1.36027 7.7178 2.36296 6.01911 3.68066 4.57846C4.99835 3.13781 6.60218 1.98678 8.39003 1.19863C10.1779 0.410494 12.1106 0.00251806 14.0651 0.000681111H35.1826C38.5987 -0.0328744 41.9105 1.17444 44.5007 3.3976C47.0909 5.62076 48.7828 8.70806 49.2609 12.0841C50.1522 18.8287 51.8052 25.4511 54.1883 31.8249C55.1354 34.3394 55.3403 37.0721 54.7789 39.6993C54.2175 42.3265 52.9132 44.738 51.0207 46.6481L42.0809 55.5701C52.1016 73.1581 66.693 87.7206 84.3159 97.7214L93.2556 88.7994C95.1695 86.9106 97.5858 85.6089 100.218 85.0486C102.851 84.4883 105.589 84.6929 108.108 85.6381C114.495 88.0164 121.13 89.6662 127.888 90.5557C131.308 91.0371 134.431 92.756 136.663 95.3855C138.895 98.015 140.081 101.372 139.996 104.817Z" fill="#2F2929"/>
</svg>
