<svg width="115" height="105" viewBox="0 0 115 105" fill="none" xmlns="http://www.w3.org/2000/svg">
<path d="M112 87.5707V3.70687C112 3.37757 111.658 3.15979 111.36 3.29915L81.8759 17.0711C81.7769 17.1173 81.6643 17.126 81.5594 17.0953L33.4406 3.04754C33.3357 3.0169 33.2231 3.02552 33.1241 3.0718L3.25956 17.0216C3.1012 17.0956 3 17.2546 3 17.4293V101.293C3 101.622 3.34209 101.84 3.64045 101.701L33.1241 87.9289C33.2231 87.8827 33.3357 87.874 33.4406 87.9047L81.5594 101.952C81.6643 101.983 81.7769 101.974 81.8759 101.928L111.74 87.9784C111.899 87.9044 112 87.7454 112 87.5707Z" stroke="#2F2929" stroke-width="6" stroke-linejoin="round"/>
<path d="M81 102V19" stroke="#2F2929" stroke-width="6"/>
<path d="M33 88L33 3" stroke="#2F2929" stroke-width="6"/>
</svg>
