<svg width="136" height="120" viewBox="0 0 136 120" fill="none" xmlns="http://www.w3.org/2000/svg">
<path d="M69.5 119.833V9.1665C69.5 6.33808 69.5 4.92386 68.6213 4.04518C67.7426 3.1665 66.3284 3.1665 63.5 3.1665H5.875C4.93219 3.1665 4.46079 3.1665 4.16789 3.4594C3.875 3.75229 3.875 4.2237 3.875 5.1665V95.9582C3.875 96.901 3.875 97.3724 4.16789 97.6653C4.46079 97.9582 4.93219 97.9582 5.875 97.9582H63.5C66.3284 97.9582 67.7426 97.9582 68.6213 98.8368C69.5 99.7155 69.5 101.13 69.5 103.958V119.833Z" stroke="#2F2929" stroke-width="6"/>
<path d="M133.125 97.9582H82.7916C79.9632 97.9582 78.549 97.9582 77.6703 98.8368C76.7916 99.7155 76.7916 101.13 76.7916 103.958V9.1665C76.7916 6.33808 76.7916 4.92386 77.6703 4.04518C78.549 3.1665 79.9632 3.1665 82.7916 3.1665H133.125C134.068 3.1665 134.539 3.1665 134.832 3.4594C135.125 3.75229 135.125 4.2237 135.125 5.1665V95.9582C135.125 96.901 135.125 97.3724 134.832 97.6653C134.539 97.9582 134.068 97.9582 133.125 97.9582Z" fill="#2F2929"/>
<path d="M18.4584 3.31651C18.4584 3.23366 18.5255 3.1665 18.6084 3.1665H40.1834C40.2662 3.1665 40.3334 3.23366 40.3334 3.3165V39.0213C40.3334 39.244 40.0641 39.3556 39.9066 39.1981L29.5727 28.8641C29.475 28.7665 29.3167 28.7665 29.2191 28.8641L18.8852 39.1981C18.7277 39.3556 18.4584 39.244 18.4584 39.0213V3.31651Z" fill="#2F2929"/>
</svg>
