<svg width="95" height="139" viewBox="0 0 95 139" fill="none" xmlns="http://www.w3.org/2000/svg">
<path d="M92 67.7188C92 92.1746 72.0767 112 47.5 112C22.9233 112 3 92.1746 3 67.7188C3 27.5498 45.976 3.82878 47.4606 3.02131C47.5047 2.99732 47.4953 2.99732 47.5394 3.0213C49.0239 3.82873 92 27.5497 92 67.7188Z" stroke="#2F2929" stroke-width="5" stroke-linejoin="round"/>
<path d="M71.7173 66.6281L69.2178 66.6796L69.2179 66.6838L71.7173 66.6281ZM23.8462 67.1741L21.3462 67.174L23.8462 67.1741ZM47.7035 29.6158L46.2303 27.596L47.7035 29.6158ZM47.8661 29.6156L49.3393 27.5958L47.8661 29.6156ZM46.2303 27.596C45.3942 28.2058 39.2556 32.7727 33.3018 39.757C27.4001 46.68 21.3463 56.3662 21.3462 67.174L26.3462 67.1741C26.3463 58.1623 31.4603 49.6244 37.1068 43.0007C42.7012 36.4381 48.4912 32.1357 49.1768 31.6356L46.2303 27.596ZM74.2168 66.5765C73.997 55.913 67.9524 46.3787 62.1017 39.5628C56.2001 32.6878 50.1669 28.1994 49.3393 27.5958L46.3929 31.6354C47.0703 32.1295 52.7609 36.3577 58.3078 42.8195C63.9055 49.3407 69.034 57.7637 69.2178 66.6796L74.2168 66.5765ZM69.2179 66.6838C69.2215 66.8461 69.2234 67.0089 69.2234 67.1721H74.2234C74.2234 66.9717 74.2211 66.7718 74.2167 66.5723L69.2179 66.6838ZM69.2234 67.1721C69.2234 79.0122 59.6251 88.6105 47.785 88.6105V93.6105C62.3865 93.6105 74.2234 81.7736 74.2234 67.1721H69.2234ZM47.785 88.6105C35.9456 88.6105 26.3478 79.0134 26.3466 67.1742L21.3466 67.1747C21.348 81.775 33.1843 93.6105 47.785 93.6105V88.6105ZM21.3462 67.174C21.3462 68.5683 22.479 69.6743 23.8464 69.6743V64.6743C25.2136 64.6743 26.3462 65.7801 26.3462 67.1741L21.3462 67.174ZM26.3466 67.1742C26.3465 65.8156 25.2492 64.6743 23.8464 64.6743V69.6743C22.4439 69.6743 21.3467 68.5331 21.3466 67.1747L26.3466 67.1742ZM49.1768 31.6356C48.8312 31.8877 48.3542 32.0862 47.7898 32.0874C47.2244 32.0885 46.7434 31.891 46.3929 31.6354L49.3393 27.5958C48.9371 27.3024 48.4006 27.0861 47.7798 27.0874C47.1601 27.0886 46.6277 27.3062 46.2303 27.596L49.1768 31.6356Z" fill="#2F2929"/>
<path d="M48.0251 138.337L48.9021 67.7422" stroke="#2F2929" stroke-width="5"/>
</svg>
