<svg width="122" height="113" viewBox="0 0 122 113" fill="none" xmlns="http://www.w3.org/2000/svg">
<path d="M13.75 51.0585C13.75 50.0494 13.75 49.5448 13.9717 49.1141C14.1933 48.6833 14.6039 48.3901 15.425 47.8035L59.8375 16.0803C60.3989 15.6794 60.6795 15.4789 61 15.4789C61.3205 15.4789 61.6011 15.6794 62.1625 16.0803L106.575 47.8035C107.396 48.3901 107.807 48.6833 108.028 49.1141C108.25 49.5448 108.25 50.0494 108.25 51.0585V107.75C108.25 108.693 108.25 109.164 107.957 109.457C107.664 109.75 107.193 109.75 106.25 109.75H15.75C14.8072 109.75 14.3358 109.75 14.0429 109.457C13.75 109.164 13.75 108.693 13.75 107.75V51.0585Z" stroke="#2F2929" stroke-width="6"/>
<path d="M0.25 60.3524C0.25 60.6193 0.25 60.7527 0.334097 60.7939C0.418195 60.835 0.523524 60.7531 0.734182 60.5892L59.7721 14.6708C60.362 14.2121 60.6569 13.9827 61 13.9827C61.3431 13.9827 61.638 14.2121 62.2279 14.6708L121.266 60.5892C121.476 60.7531 121.582 60.835 121.666 60.7939C121.75 60.7527 121.75 60.6193 121.75 60.3524V48.444C121.75 47.9636 121.75 47.7235 121.648 47.5156C121.547 47.3076 121.357 47.1602 120.978 46.8653L62.2279 1.17084C61.638 0.712068 61.3431 0.482682 61 0.482682C60.6569 0.482682 60.362 0.712068 59.7721 1.17084L1.02212 46.8653C0.642952 47.1602 0.453369 47.3076 0.351685 47.5156C0.25 47.7235 0.25 47.9636 0.25 48.444V60.3524Z" fill="#2F2929"/>
<path d="M75.875 69.25H46.125C45.0204 69.25 44.125 70.1454 44.125 71.25V109.6C44.125 109.683 44.1922 109.75 44.275 109.75H77.725C77.8078 109.75 77.875 109.683 77.875 109.6V71.25C77.875 70.1454 76.9796 69.25 75.875 69.25Z" fill="#2F2929"/>
<path d="M88 8.07959C88 7.80345 88.2239 7.57959 88.5 7.57959H101C101.276 7.57959 101.5 7.80345 101.5 8.07959V34.0796C101.5 34.3557 101.276 34.5796 101 34.5796H88.5C88.2239 34.5796 88 34.3557 88 34.0796V8.07959Z" fill="#2F2929"/>
</svg>
