<svg width="150" height="150" viewBox="0 0 150 150" fill="none" xmlns="http://www.w3.org/2000/svg">
<g filter="url(#filter0_d_9_36)">
<path d="M144.996 105.817V126.893C145.004 128.849 144.602 130.786 143.817 132.578C143.031 134.371 141.879 135.98 140.435 137.303C138.99 138.626 137.285 139.633 135.428 140.259C133.571 140.886 131.603 141.119 129.65 140.943C107.99 138.594 87.183 131.207 68.9023 119.376C51.8945 108.589 37.4748 94.1984 26.6674 77.2243C14.771 58.8969 7.36769 38.0306 5.05713 16.3156C4.88123 14.3729 5.11257 12.415 5.73642 10.5664C6.36027 8.7178 7.36296 7.01911 8.68066 5.57846C9.99835 4.13781 11.6022 2.98678 13.39 2.19863C15.1779 1.41049 17.1106 1.00252 19.0651 1.00068H40.1826C43.5987 0.967126 46.9105 2.17444 49.5007 4.3976C52.0909 6.62076 53.7828 9.70806 54.2609 13.0841C55.1522 19.8287 56.8052 26.4511 59.1883 32.8249C60.1354 35.3394 60.3403 38.0721 59.7789 40.6993C59.2175 43.3265 57.9132 45.738 56.0207 47.6481L47.0809 56.5701C57.1016 74.1581 71.693 88.7206 89.3159 98.7214L98.2556 89.7994C100.17 87.9106 102.586 86.6089 105.218 86.0486C107.851 85.4883 110.589 85.6929 113.108 86.6381C119.495 89.0164 126.13 90.6662 132.888 91.5557C136.308 92.0371 139.431 93.756 141.663 96.3855C143.895 99.015 145.081 102.372 144.996 105.817Z" fill="#F2DCC9"/>
<path d="M144.996 105.817V126.893C145.004 128.849 144.602 130.786 143.817 132.578C143.031 134.371 141.879 135.98 140.435 137.303C138.99 138.626 137.285 139.633 135.428 140.259C133.571 140.886 131.603 141.119 129.65 140.943C107.99 138.594 87.183 131.207 68.9023 119.376C51.8945 108.589 37.4748 94.1984 26.6674 77.2243C14.771 58.8969 7.36769 38.0306 5.05713 16.3156C4.88123 14.3729 5.11257 12.415 5.73642 10.5664C6.36027 8.7178 7.36296 7.01911 8.68066 5.57846C9.99835 4.13781 11.6022 2.98678 13.39 2.19863C15.1779 1.41049 17.1106 1.00252 19.0651 1.00068H40.1826C43.5987 0.967126 46.9105 2.17444 49.5007 4.3976C52.0909 6.62076 53.7828 9.70806 54.2609 13.0841C55.1522 19.8287 56.8052 26.4511 59.1883 32.8249C60.1354 35.3394 60.3403 38.0721 59.7789 40.6993C59.2175 43.3265 57.9132 45.738 56.0207 47.6481L47.0809 56.5701C57.1016 74.1581 71.693 88.7206 89.3159 98.7214L98.2556 89.7994C100.17 87.9106 102.586 86.6089 105.218 86.0486C107.851 85.4883 110.589 85.6929 113.108 86.6381C119.495 89.0164 126.13 90.6662 132.888 91.5557C136.308 92.0371 139.431 93.756 141.663 96.3855C143.895 99.015 145.081 102.372 144.996 105.817Z" stroke="#F2DCC9" stroke-linecap="round" stroke-linejoin="round"/>
</g>
<defs>
<filter id="filter0_d_9_36" x="0.5" y="0.5" width="149" height="149" filterUnits="userSpaceOnUse" color-interpolation-filters="sRGB">
<feFlood flood-opacity="0" result="BackgroundImageFix"/>
<feColorMatrix in="SourceAlpha" type="matrix" values="0 0 0 0 0 0 0 0 0 0 0 0 0 0 0 0 0 0 127 0" result="hardAlpha"/>
<feOffset dy="4"/>
<feGaussianBlur stdDeviation="2"/>
<feComposite in2="hardAlpha" operator="out"/>
<feColorMatrix type="matrix" values="0 0 0 0 0 0 0 0 0 0 0 0 0 0 0 0 0 0 0.25 0"/>
<feBlend mode="normal" in2="BackgroundImageFix" result="effect1_dropShadow_9_36"/>
<feBlend mode="normal" in="SourceGraphic" in2="effect1_dropShadow_9_36" result="shape"/>
</filter>
</defs>
</svg>
